<svg width="10" height="10" viewBox="0 0 10 10" fill="none" xmlns="http://www.w3.org/2000/svg">
<path d="M9.0494 9.0494C8.89315 9.20565 8.60669 9.20565 8.45044 9.0494L5.01294 5.58586L1.5494 9.0494C1.39315 9.20565 1.10669 9.20565 0.950439 9.0494C0.794189 8.89315 0.794189 8.60669 0.950439 8.45044L4.41398 4.9869L0.950439 1.5494C0.794189 1.39315 0.794189 1.10669 0.950439 0.950439C1.10669 0.794189 1.39315 0.794189 1.5494 0.950439L5.01294 4.41398L8.45044 0.950439C8.60669 0.794189 8.89315 0.794189 9.0494 0.950439C9.20565 1.10669 9.20565 1.39315 9.0494 1.5494L5.58586 4.9869L9.0494 8.45044C9.20565 8.60669 9.20565 8.89315 9.0494 9.0494Z" fill="black"/>
</svg>
